<svg width="508" height="508" viewBox="0 0 508 508" fill="none" xmlns="http://www.w3.org/2000/svg">
<g filter="url(#filter0_d_132_2)">
<rect x="4" width="500" height="500" rx="100" fill="black"/>
<rect x="13" y="9" width="482" height="482" rx="91" stroke="url(#paint0_linear_132_2)" stroke-width="18"/>
<g filter="url(#filter1_i_132_2)">
<path d="M166.517 174.545H196.915V275.966C196.915 285.341 194.808 293.485 190.594 300.398C186.427 307.311 180.627 312.637 173.194 316.378C165.76 320.118 157.119 321.989 147.27 321.989C138.511 321.989 130.556 320.45 123.407 317.372C116.304 314.247 110.67 309.512 106.503 303.168C102.337 296.776 100.277 288.75 100.324 279.091H130.935C131.03 282.926 131.811 286.217 133.279 288.963C134.794 291.662 136.854 293.745 139.458 295.213C142.109 296.634 145.234 297.344 148.833 297.344C152.621 297.344 155.817 296.539 158.421 294.929C161.072 293.272 163.085 290.857 164.458 287.685C165.831 284.512 166.517 280.606 166.517 275.966V174.545ZM231.412 320H198.458L248.671 174.545H288.301L338.444 320H305.489L269.054 207.784H267.918L231.412 320ZM229.353 262.827H307.194V286.832H229.353V262.827ZM370.703 174.545V320H339.951V174.545H370.703Z" fill="white"/>
</g>
</g>
<defs>
<filter id="filter0_d_132_2" x="0" y="0" width="508" height="508" filterUnits="userSpaceOnUse" color-interpolation-filters="sRGB">
<feFlood flood-opacity="0" result="BackgroundImageFix"/>
<feColorMatrix in="SourceAlpha" type="matrix" values="0 0 0 0 0 0 0 0 0 0 0 0 0 0 0 0 0 0 127 0" result="hardAlpha"/>
<feOffset dy="4"/>
<feGaussianBlur stdDeviation="2"/>
<feComposite in2="hardAlpha" operator="out"/>
<feColorMatrix type="matrix" values="0 0 0 0 0 0 0 0 0 0 0 0 0 0 0 0 0 0 0.25 0"/>
<feBlend mode="normal" in2="BackgroundImageFix" result="effect1_dropShadow_132_2"/>
<feBlend mode="normal" in="SourceGraphic" in2="effect1_dropShadow_132_2" result="shape"/>
</filter>
<filter id="filter1_i_132_2" x="100.253" y="174.545" width="270.45" height="151.443" filterUnits="userSpaceOnUse" color-interpolation-filters="sRGB">
<feFlood flood-opacity="0" result="BackgroundImageFix"/>
<feBlend mode="normal" in="SourceGraphic" in2="BackgroundImageFix" result="shape"/>
<feColorMatrix in="SourceAlpha" type="matrix" values="0 0 0 0 0 0 0 0 0 0 0 0 0 0 0 0 0 0 127 0" result="hardAlpha"/>
<feOffset dy="4"/>
<feGaussianBlur stdDeviation="2"/>
<feComposite in2="hardAlpha" operator="arithmetic" k2="-1" k3="1"/>
<feColorMatrix type="matrix" values="0 0 0 0 0 0 0 0 0 0 0 0 0 0 0 0 0 0 0.25 0"/>
<feBlend mode="normal" in2="shape" result="effect1_innerShadow_132_2"/>
</filter>
<linearGradient id="paint0_linear_132_2" x1="4" y1="250" x2="504" y2="250" gradientUnits="userSpaceOnUse">
<stop stop-color="#0096FF"/>
<stop offset="0.350962" stop-color="#BB64FF"/>
<stop offset="0.701923" stop-color="#F2416B"/>
<stop offset="1" stop-color="#EB7500"/>
</linearGradient>
</defs>
</svg>
